<?xml version="1.0" encoding="utf-8"?>
<!-- Svg Vector Icons : http://www.onlinewebfonts.com/icon -->
<!DOCTYPE svg PUBLIC "-//W3C//DTD SVG 1.1//EN" "http://www.w3.org/Graphics/SVG/1.1/DTD/svg11.dtd">
<svg version="1.1" xmlns="http://www.w3.org/2000/svg" xmlns:xlink="http://www.w3.org/1999/xlink" x="0px" y="0px" viewBox="0 0 1000 1000" enable-background="new 0 0 1000 1000" xml:space="preserve">
<metadata> Svg Vector Icons : http://www.onlinewebfonts.com/icon </metadata>
<g><path d="M277.3,188.2c-49,0-89.1,40.1-89.1,89.1c0,49,40.1,89.1,89.1,89.1c49,0,89.1-40.1,89.1-89.1C366.4,228.3,326.3,188.2,277.3,188.2z M277.3,321.8c-24.5,0-44.5-20-44.5-44.5c0-24.5,20-44.5,44.5-44.5s44.5,20,44.5,44.5C321.8,301.8,301.8,321.8,277.3,321.8z M900.9,10H99.1C50.1,10,10,50.1,10,99.1v801.8c0,49,40.1,89.1,89.1,89.1h801.8c49,0,89.1-40.1,89.1-89.1V99.1C990,50.1,949.9,10,900.9,10z M945.5,900.9c0,24.5-20,44.5-44.5,44.5H99.1c-24.5,0-44.5-20-44.5-44.5V99.1c0-24.5,20-44.5,44.5-44.5h801.8c24.5,0,44.5,20,44.5,44.5V900.9z M667,642.5c-15.6,8.9-31.2,13.4-46.8,13.4c-20,0-40.1-4.5-55.7-11.1c-15.6-8.9-31.2-20-42.3-33.4c-11.1-13.4-20-31.2-26.7-49c-6.7-20-8.9-40.1-8.9-62.4c0-22.3,2.2-40.1,8.9-60.1c6.7-17.8,15.6-33.4,26.7-49c11.1-13.4,26.7-24.5,42.3-33.4c15.6-6.7,35.6-11.1,55.7-11.1c13.4,0,26.7,2.2,40.1,8.9c13.4,6.7,26.7,17.8,42.3,33.4l55.7-42.3c-20-24.5-40.1-42.3-64.6-51.2c-24.5-8.9-46.8-17.8-73.5-17.8c-31.2,0-57.9,4.5-84.6,15.6c-24.5,11.1-46.8,26.7-66.8,44.5c-17.8,20-33.4,42.3-42.3,71.3c-11.1,26.7-15.6,57.9-15.6,93.5c0,33.4,4.5,62.4,15.6,91.3c11.1,26.7,24.5,51.2,42.3,69c17.8,20,40.1,33.4,66.8,44.5c24.5,11.1,53.5,15.6,84.6,15.6c29,0,55.7-6.7,82.4-17.8c26.7-11.1,46.8-31.2,64.6-57.9l-57.9-44.5C696,620.3,682.6,633.6,667,642.5z"/></g>
</svg>